<svg xmlns="http://www.w3.org/2000/svg" width="780" height="670" viewBox="0 0 780 670" font-family="ui-monospace,Menlo,monospace" font-size="11"><rect width="100%" height="100%" fill="#f4f5f2"/><text x="30" y="24" font-size="15" fill="#1a2125" font-weight="bold">mvp-wedge-harness — harness schematic (robowire 0.1.0-m0)</text><line x1="30" y1="56" x2="750" y2="56" stroke="#c94f3d" stroke-width="2.5"/><text x="630" y="52" fill="#c94f3d">vbat_sw (7.4V)</text><line x1="30" y1="78" x2="750" y2="78" stroke="#c94f3d" stroke-width="2.5"/><text x="630" y="74" fill="#c94f3d">vbat (7.4V)</text><line x1="30" y1="100" x2="750" y2="100" stroke="#d8913a" stroke-width="2.5"/><text x="630" y="96" fill="#d8913a">v5 (5V)</text><line x1="30" y1="122" x2="750" y2="122" stroke="#a3a13c" stroke-width="2.5"/><text x="630" y="118" fill="#a3a13c">v33 (3.3V)</text><line x1="30" y1="144" x2="750" y2="144" stroke="#2e8b57" stroke-width="2" stroke-dasharray="none"/><text x="630" y="141" fill="#2e8b57">i2c0 SDA</text><line x1="30" y1="158" x2="750" y2="158" stroke="#2e8b57" stroke-width="2" stroke-dasharray="6 3"/><text x="630" y="155" fill="#2e8b57">i2c0 SCL</text><line x1="30" y1="610" x2="750" y2="610" stroke="#556066" stroke-width="2.5"/><text x="630" y="606" fill="#556066">GND</text><line x1="44" y1="250" x2="44" y2="56" stroke="#c94f3d" stroke-width="1.6"/><circle cx="44" cy="56" r="3" fill="#c94f3d"/><line x1="620" y1="250" x2="620" y2="56" stroke="#c94f3d" stroke-width="1.6"/><circle cx="620" cy="56" r="3" fill="#c94f3d"/><line x1="636" y1="286" x2="636" y2="78" stroke="#c94f3d" stroke-width="1.6"/><circle cx="636" cy="78" r="3" fill="#c94f3d"/><line x1="222" y1="250" x2="222" y2="78" stroke="#c94f3d" stroke-width="1.6"/><circle cx="222" cy="78" r="3" fill="#c94f3d"/><line x1="188" y1="250" x2="188" y2="100" stroke="#d8913a" stroke-width="1.6"/><circle cx="188" cy="100" r="3" fill="#d8913a"/><line x1="204" y1="506" x2="204" y2="100" stroke="#d8913a" stroke-width="1.6"/><circle cx="204" cy="100" r="3" fill="#d8913a"/><line x1="364" y1="470" x2="364" y2="100" stroke="#d8913a" stroke-width="1.6"/><circle cx="364" cy="100" r="3" fill="#d8913a"/><line x1="188" y1="470" x2="188" y2="122" stroke="#a3a13c" stroke-width="1.6"/><circle cx="188" cy="122" r="3" fill="#a3a13c"/><line x1="524" y1="506" x2="524" y2="122" stroke="#a3a13c" stroke-width="1.6"/><circle cx="524" cy="122" r="3" fill="#a3a13c"/><line x1="668" y1="506" x2="668" y2="122" stroke="#a3a13c" stroke-width="1.6"/><circle cx="668" cy="122" r="3" fill="#a3a13c"/><line x1="92" y1="506" x2="92" y2="122" stroke="#a3a13c" stroke-width="1.6"/><circle cx="92" cy="122" r="3" fill="#a3a13c"/><line x1="60" y1="286" x2="60" y2="610" stroke="#556066" stroke-width="1.6"/><circle cx="60" cy="610" r="3" fill="#556066"/><line x1="204" y1="286" x2="204" y2="610" stroke="#556066" stroke-width="1.6"/><circle cx="204" cy="610" r="3" fill="#556066"/><line x1="220" y1="470" x2="220" y2="610" stroke="#556066" stroke-width="1.6"/><circle cx="220" cy="610" r="3" fill="#556066"/><line x1="332" y1="470" x2="332" y2="610" stroke="#556066" stroke-width="1.6"/><circle cx="332" cy="610" r="3" fill="#556066"/><line x1="476" y1="470" x2="476" y2="610" stroke="#556066" stroke-width="1.6"/><circle cx="476" cy="610" r="3" fill="#556066"/><line x1="620" y1="470" x2="620" y2="610" stroke="#556066" stroke-width="1.6"/><circle cx="620" cy="610" r="3" fill="#556066"/><line x1="44" y1="470" x2="44" y2="610" stroke="#556066" stroke-width="1.6"/><circle cx="44" cy="610" r="3" fill="#556066"/><polyline points="220,250 220,389.28205128205127 332,389.28205128205127 332,250" fill="none" stroke="#7a8288" stroke-width="1.6"/><text x="264" y="386.28205128205127" fill="#7a8288" font-size="9">m_l_a</text><polyline points="236,286 236,390.1025641025641 348,390.1025641025641 348,286" fill="none" stroke="#7a8288" stroke-width="1.6"/><text x="280" y="387.1025641025641" fill="#7a8288" font-size="9">m_l_b</text><polyline points="252,250 252,390.9230769230769 476,390.9230769230769 476,250" fill="none" stroke="#7a8288" stroke-width="1.6"/><text x="352" y="387.9230769230769" fill="#7a8288" font-size="9">m_r_a</text><polyline points="268,286 268,391.7435897435897 492,391.7435897435897 492,286" fill="none" stroke="#7a8288" stroke-width="1.6"/><text x="368" y="388.7435897435897" fill="#7a8288" font-size="9">m_r_b</text><polyline points="252,470 252,387.7435897435897 190,387.7435897435897 190,250" fill="none" stroke="#3f7cc4" stroke-width="1.6"/><text x="209" y="384.7435897435897" fill="#3f7cc4" font-size="9">pwm_l</text><polyline points="268,506 268,388.56410256410254 206,388.56410256410254 206,286" fill="none" stroke="#3f7cc4" stroke-width="1.6"/><text x="225" y="385.56410256410254" fill="#3f7cc4" font-size="9">pwm_r</text><polyline points="348,506 348,390.1025641025641 236,390.1025641025641 236,506" fill="none" stroke="#8a5bb8" stroke-width="1.6"/><text x="280" y="387.1025641025641" fill="#8a5bb8" font-size="9">crsf</text><line x1="190" y1="470" x2="190" y2="144" stroke="#2e8b57" stroke-width="1.6"/><circle cx="190" cy="144" r="3" fill="#2e8b57"/><line x1="206" y1="506" x2="206" y2="158" stroke="#2e8b57" stroke-width="1.6"/><circle cx="206" cy="158" r="3" fill="#2e8b57"/><line x1="76" y1="470" x2="76" y2="144" stroke="#2e8b57" stroke-width="1.3"/><circle cx="76" cy="144" r="2.5" fill="#2e8b57"/><line x1="60" y1="506" x2="60" y2="158" stroke="#2e8b57" stroke-width="1.3"/><circle cx="60" cy="158" r="2.5" fill="#2e8b57"/><text x="30" y="530" fill="#2e8b57" font-size="9">@0x68</text><line x1="508" y1="470" x2="508" y2="144" stroke="#2e8b57" stroke-width="1.3"/><circle cx="508" cy="144" r="2.5" fill="#2e8b57"/><line x1="492" y1="506" x2="492" y2="158" stroke="#2e8b57" stroke-width="1.3"/><circle cx="492" cy="158" r="2.5" fill="#2e8b57"/><polyline points="540,470 540,482 222,482 222,470" fill="none" stroke="#2e8b57" stroke-width="1.2" stroke-dasharray="3 3"/><text x="462" y="530" fill="#2e8b57" font-size="9">@0x2A (reassigned)</text><line x1="652" y1="470" x2="652" y2="144" stroke="#2e8b57" stroke-width="1.3"/><circle cx="652" cy="144" r="2.5" fill="#2e8b57"/><line x1="636" y1="506" x2="636" y2="158" stroke="#2e8b57" stroke-width="1.3"/><circle cx="636" cy="158" r="2.5" fill="#2e8b57"/><polyline points="684,470 684,500 238,500 238,506" fill="none" stroke="#2e8b57" stroke-width="1.2" stroke-dasharray="3 3"/><text x="606" y="530" fill="#2e8b57" font-size="9">@0x29</text><rect x="30" y="250" width="118" height="36" rx="4" fill="#ffffff" stroke="#8b969b"/><text x="38" y="264" fill="#1a2125" font-weight="bold">batt</text><text x="38" y="277" fill="#5c686d" font-size="9">lipo-2s-260</text><circle cx="44" cy="250" r="2.5" fill="#1a2125"/><text x="46" y="245" fill="#5c686d" font-size="8" transform="rotate(-45 46 245)">+</text><circle cx="60" cy="286" r="2.5" fill="#1a2125"/><text x="62" y="297" fill="#5c686d" font-size="8" transform="rotate(-45 62 297)">-</text><rect x="174" y="250" width="118" height="36" rx="4" fill="#ffffff" stroke="#8b969b"/><text x="182" y="264" fill="#1a2125" font-weight="bold">esc</text><text x="182" y="277" fill="#5c686d" font-size="9">bbb-dual-esc</text><circle cx="188" cy="250" r="2.5" fill="#1a2125"/><text x="190" y="245" fill="#5c686d" font-size="8" transform="rotate(-45 190 245)">BEC5V</text><circle cx="204" cy="286" r="2.5" fill="#1a2125"/><text x="206" y="297" fill="#5c686d" font-size="8" transform="rotate(-45 206 297)">GND</text><circle cx="220" cy="250" r="2.5" fill="#1a2125"/><text x="222" y="245" fill="#5c686d" font-size="8" transform="rotate(-45 222 245)">M1+</text><circle cx="236" cy="286" r="2.5" fill="#1a2125"/><text x="238" y="297" fill="#5c686d" font-size="8" transform="rotate(-45 238 297)">M1-</text><circle cx="252" cy="250" r="2.5" fill="#1a2125"/><text x="254" y="245" fill="#5c686d" font-size="8" transform="rotate(-45 254 245)">M2+</text><circle cx="268" cy="286" r="2.5" fill="#1a2125"/><text x="270" y="297" fill="#5c686d" font-size="8" transform="rotate(-45 270 297)">M2-</text><circle cx="190" cy="250" r="2.5" fill="#1a2125"/><text x="192" y="245" fill="#5c686d" font-size="8" transform="rotate(-45 192 245)">S1</text><circle cx="206" cy="286" r="2.5" fill="#1a2125"/><text x="208" y="297" fill="#5c686d" font-size="8" transform="rotate(-45 208 297)">S2</text><circle cx="222" cy="250" r="2.5" fill="#1a2125"/><text x="224" y="245" fill="#5c686d" font-size="8" transform="rotate(-45 224 245)">VIN</text><rect x="30" y="470" width="118" height="36" rx="4" fill="#ffffff" stroke="#8b969b"/><text x="38" y="484" fill="#1a2125" font-weight="bold">imu</text><text x="38" y="497" fill="#5c686d" font-size="9">imu-icm42688</text><circle cx="44" cy="470" r="2.5" fill="#1a2125"/><text x="46" y="465" fill="#5c686d" font-size="8" transform="rotate(-45 46 465)">GND</text><circle cx="60" cy="506" r="2.5" fill="#1a2125"/><text x="62" y="517" fill="#5c686d" font-size="8" transform="rotate(-45 62 517)">SCL</text><circle cx="76" cy="470" r="2.5" fill="#1a2125"/><text x="78" y="465" fill="#5c686d" font-size="8" transform="rotate(-45 78 465)">SDA</text><circle cx="92" cy="506" r="2.5" fill="#1a2125"/><text x="94" y="517" fill="#5c686d" font-size="8" transform="rotate(-45 94 517)">VIN</text><rect x="318" y="250" width="118" height="36" rx="4" fill="#ffffff" stroke="#8b969b"/><text x="326" y="264" fill="#1a2125" font-weight="bold">m_l</text><text x="326" y="277" fill="#5c686d" font-size="9">n20-motor-6v</text><circle cx="332" cy="250" r="2.5" fill="#1a2125"/><text x="334" y="245" fill="#5c686d" font-size="8" transform="rotate(-45 334 245)">M+</text><circle cx="348" cy="286" r="2.5" fill="#1a2125"/><text x="350" y="297" fill="#5c686d" font-size="8" transform="rotate(-45 350 297)">M-</text><rect x="462" y="250" width="118" height="36" rx="4" fill="#ffffff" stroke="#8b969b"/><text x="470" y="264" fill="#1a2125" font-weight="bold">m_r</text><text x="470" y="277" fill="#5c686d" font-size="9">n20-motor-6v</text><circle cx="476" cy="250" r="2.5" fill="#1a2125"/><text x="478" y="245" fill="#5c686d" font-size="8" transform="rotate(-45 478 245)">M+</text><circle cx="492" cy="286" r="2.5" fill="#1a2125"/><text x="494" y="297" fill="#5c686d" font-size="8" transform="rotate(-45 494 297)">M-</text><rect x="174" y="470" width="118" height="36" rx="4" fill="#ffffff" stroke="#8b969b"/><text x="182" y="484" fill="#1a2125" font-weight="bold">mcu</text><text x="182" y="497" fill="#5c686d" font-size="9">rp2350-zero</text><circle cx="188" cy="470" r="2.5" fill="#1a2125"/><text x="190" y="465" fill="#5c686d" font-size="8" transform="rotate(-45 190 465)">3V3</text><circle cx="204" cy="506" r="2.5" fill="#1a2125"/><text x="206" y="517" fill="#5c686d" font-size="8" transform="rotate(-45 206 517)">5V</text><circle cx="220" cy="470" r="2.5" fill="#1a2125"/><text x="222" y="465" fill="#5c686d" font-size="8" transform="rotate(-45 222 465)">GND</text><circle cx="236" cy="506" r="2.5" fill="#1a2125"/><text x="238" y="517" fill="#5c686d" font-size="8" transform="rotate(-45 238 517)">GP1</text><circle cx="252" cy="470" r="2.5" fill="#1a2125"/><text x="254" y="465" fill="#5c686d" font-size="8" transform="rotate(-45 254 465)">GP2</text><circle cx="268" cy="506" r="2.5" fill="#1a2125"/><text x="270" y="517" fill="#5c686d" font-size="8" transform="rotate(-45 270 517)">GP3</text><circle cx="190" cy="470" r="2.5" fill="#1a2125"/><text x="192" y="465" fill="#5c686d" font-size="8" transform="rotate(-45 192 465)">GP4</text><circle cx="206" cy="506" r="2.5" fill="#1a2125"/><text x="208" y="517" fill="#5c686d" font-size="8" transform="rotate(-45 208 517)">GP5</text><circle cx="222" cy="470" r="2.5" fill="#1a2125"/><text x="224" y="465" fill="#5c686d" font-size="8" transform="rotate(-45 224 465)">GP6</text><circle cx="238" cy="506" r="2.5" fill="#1a2125"/><text x="240" y="517" fill="#5c686d" font-size="8" transform="rotate(-45 240 517)">GP7</text><rect x="318" y="470" width="118" height="36" rx="4" fill="#ffffff" stroke="#8b969b"/><text x="326" y="484" fill="#1a2125" font-weight="bold">rx</text><text x="326" y="497" fill="#5c686d" font-size="9">elrs-rx</text><circle cx="332" cy="470" r="2.5" fill="#1a2125"/><text x="334" y="465" fill="#5c686d" font-size="8" transform="rotate(-45 334 465)">GND</text><circle cx="348" cy="506" r="2.5" fill="#1a2125"/><text x="350" y="517" fill="#5c686d" font-size="8" transform="rotate(-45 350 517)">TX</text><circle cx="364" cy="470" r="2.5" fill="#1a2125"/><text x="366" y="465" fill="#5c686d" font-size="8" transform="rotate(-45 366 465)">VIN</text><rect x="606" y="250" width="118" height="36" rx="4" fill="#ffffff" stroke="#8b969b"/><text x="614" y="264" fill="#1a2125" font-weight="bold">sw</text><text x="614" y="277" fill="#5c686d" font-size="9">power-switch-slide</text><circle cx="620" cy="250" r="2.5" fill="#1a2125"/><text x="622" y="245" fill="#5c686d" font-size="8" transform="rotate(-45 622 245)">in</text><circle cx="636" cy="286" r="2.5" fill="#1a2125"/><text x="638" y="297" fill="#5c686d" font-size="8" transform="rotate(-45 638 297)">out</text><rect x="462" y="470" width="118" height="36" rx="4" fill="#ffffff" stroke="#8b969b"/><text x="470" y="484" fill="#1a2125" font-weight="bold">tof_l</text><text x="470" y="497" fill="#5c686d" font-size="9">vl53l0x-breakout</text><circle cx="476" cy="470" r="2.5" fill="#1a2125"/><text x="478" y="465" fill="#5c686d" font-size="8" transform="rotate(-45 478 465)">GND</text><circle cx="492" cy="506" r="2.5" fill="#1a2125"/><text x="494" y="517" fill="#5c686d" font-size="8" transform="rotate(-45 494 517)">SCL</text><circle cx="508" cy="470" r="2.5" fill="#1a2125"/><text x="510" y="465" fill="#5c686d" font-size="8" transform="rotate(-45 510 465)">SDA</text><circle cx="524" cy="506" r="2.5" fill="#1a2125"/><text x="526" y="517" fill="#5c686d" font-size="8" transform="rotate(-45 526 517)">VIN</text><circle cx="540" cy="470" r="2.5" fill="#1a2125"/><text x="542" y="465" fill="#5c686d" font-size="8" transform="rotate(-45 542 465)">XSHUT</text><rect x="606" y="470" width="118" height="36" rx="4" fill="#ffffff" stroke="#8b969b"/><text x="614" y="484" fill="#1a2125" font-weight="bold">tof_r</text><text x="614" y="497" fill="#5c686d" font-size="9">vl53l0x-breakout</text><circle cx="620" cy="470" r="2.5" fill="#1a2125"/><text x="622" y="465" fill="#5c686d" font-size="8" transform="rotate(-45 622 465)">GND</text><circle cx="636" cy="506" r="2.5" fill="#1a2125"/><text x="638" y="517" fill="#5c686d" font-size="8" transform="rotate(-45 638 517)">SCL</text><circle cx="652" cy="470" r="2.5" fill="#1a2125"/><text x="654" y="465" fill="#5c686d" font-size="8" transform="rotate(-45 654 465)">SDA</text><circle cx="668" cy="506" r="2.5" fill="#1a2125"/><text x="670" y="517" fill="#5c686d" font-size="8" transform="rotate(-45 670 517)">VIN</text><circle cx="684" cy="470" r="2.5" fill="#1a2125"/><text x="686" y="465" fill="#5c686d" font-size="8" transform="rotate(-45 686 465)">XSHUT</text></svg>